<?xml version="1.0" standalone="no"?>
<!DOCTYPE svg PUBLIC "-//W3C//DTD SVG 20010904//EN"
 "http://www.w3.org/TR/2001/REC-SVG-20010904/DTD/svg10.dtd">
<svg version="1.0" xmlns="http://www.w3.org/2000/svg"
 width="1338.000000pt" height="1338.000000pt" viewBox="0 0 1338.000000 1338.000000"
 preserveAspectRatio="xMidYMid meet">
<metadata>
Created by potrace 1.14, written by Peter Selinger 2001-2017
</metadata>
<g transform="translate(0.000000,1338.000000) scale(0.100000,-0.100000)"
fill="#000000" stroke="none">
<path d="M6360 13076 c0 -2 5 -28 11 -57 10 -52 17 -86 23 -119 1 -8 6 -28 10
-45 3 -16 8 -43 11 -60 2 -16 7 -41 10 -55 4 -14 7 -38 8 -55 1 -16 5 -34 8
-40 3 -5 5 -25 4 -42 0 -18 2 -33 5 -33 3 0 6 -8 7 -17 0 -10 4 -45 8 -78 4
-33 9 -73 11 -90 1 -16 3 -30 4 -30 2 0 4 -16 5 -35 4 -47 14 -136 20 -185 3
-22 7 -70 9 -106 2 -37 7 -72 10 -78 4 -6 1 -11 -6 -11 -8 0 -9 -3 -3 -8 6 -4
12 -41 14 -82 2 -41 5 -97 8 -125 10 -127 11 -871 1 -882 -6 -8 -7 -13 -1 -13
5 0 9 -10 7 -22 -1 -13 -3 -23 -4 -23 -1 0 -2 -36 -4 -81 -1 -44 -6 -85 -10
-92 -4 -7 -2 -12 4 -12 6 0 8 -5 4 -11 -7 -12 -8 -22 -18 -178 -3 -46 -8 -100
-10 -120 -6 -38 -18 -174 -20 -203 0 -10 -3 -18 -6 -18 -3 0 -5 -17 -6 -38 0
-20 -4 -59 -7 -87 -4 -27 -9 -68 -12 -90 -2 -22 -7 -50 -10 -62 -3 -12 -8 -41
-11 -65 -3 -24 -7 -52 -10 -63 -2 -11 -6 -38 -9 -60 -3 -22 -8 -50 -10 -62 -3
-13 -7 -35 -10 -50 -10 -53 -45 -228 -51 -253 -3 -14 -7 -36 -10 -50 -2 -14
-7 -31 -10 -39 -2 -8 -7 -30 -10 -50 -3 -20 -11 -39 -18 -43 -8 -6 -8 -8 1 -8
9 0 10 -7 4 -22 -21 -51 -24 -64 -24 -85 0 -13 -4 -23 -8 -23 -5 0 -8 -3 -7
-7 3 -11 -12 -86 -20 -98 -3 -5 -7 -16 -8 -25 -3 -20 -9 -46 -25 -100 -7 -25
-13 -47 -14 -50 -18 -66 -33 -113 -61 -199 -19 -58 -34 -111 -34 -118 0 -7 -4
-13 -10 -13 -5 0 -9 -3 -8 -7 4 -16 -26 -113 -36 -113 -5 0 -7 -2 -4 -6 5 -4
-19 -81 -51 -157 -6 -16 -11 -30 -11 -33 0 -5 -66 -177 -85 -219 -7 -16 -16
-40 -20 -52 -3 -13 -11 -23 -16 -23 -6 0 -8 -4 -5 -9 3 -4 -4 -25 -14 -47 -11
-21 -20 -44 -20 -51 0 -7 -4 -13 -10 -13 -5 0 -9 -3 -8 -7 3 -13 -23 -83 -31
-83 -4 0 -8 -6 -8 -12 0 -7 -26 -65 -57 -130 -31 -64 -56 -121 -56 -126 0 -6
-3 -12 -7 -14 -5 -1 -30 -46 -56 -98 -86 -170 -185 -350 -204 -368 -7 -7 -13
-20 -13 -27 0 -7 -6 -20 -12 -27 -7 -8 -19 -24 -25 -36 -7 -12 -19 -32 -25
-44 -7 -12 -19 -28 -25 -36 -7 -7 -13 -20 -13 -27 0 -8 -7 -18 -16 -23 -9 -5
-15 -12 -14 -16 2 -11 -222 -346 -232 -346 -5 0 -6 -5 -3 -10 3 -6 -1 -13 -9
-16 -9 -3 -14 -10 -11 -14 3 -5 0 -12 -6 -15 -6 -4 -46 -62 -90 -129 -43 -66
-82 -126 -86 -132 -5 -5 -17 -26 -27 -45 -10 -19 -36 -65 -58 -104 -71 -130
-163 -323 -160 -337 1 -5 -2 -8 -8 -8 -5 0 -10 -8 -10 -18 0 -10 -5 -23 -12
-30 -7 -7 -9 -12 -5 -12 4 0 -2 -16 -13 -37 -10 -20 -17 -40 -14 -45 3 -4 0
-8 -7 -8 -7 0 -10 -3 -7 -6 4 -3 0 -17 -7 -31 -8 -15 -12 -30 -9 -35 3 -4 0
-8 -7 -8 -7 0 -10 -3 -6 -6 5 -6 1 -22 -29 -99 -4 -11 -6 -26 -5 -32 1 -7 -4
-13 -10 -13 -7 0 -10 -2 -7 -5 3 -3 -6 -43 -19 -88 -14 -45 -26 -89 -27 -97
-2 -8 -6 -31 -11 -50 -5 -19 -9 -38 -9 -42 -2 -19 -18 -19 -23 0 -3 12 -8 22
-12 22 -3 0 -17 21 -31 48 -13 26 -27 49 -30 52 -10 9 -90 177 -90 189 0 6 -4
11 -8 11 -5 0 -9 6 -9 13 0 6 -12 37 -26 68 -14 31 -23 60 -20 63 4 3 1 6 -6
6 -7 0 -9 4 -6 10 3 6 1 10 -4 10 -6 0 -10 3 -10 8 1 4 0 10 -1 15 -1 4 -4 12
-5 17 -1 6 -4 12 -5 15 -1 3 -4 10 -5 15 -1 6 -4 12 -5 15 -1 3 -3 8 -4 13 -4
13 -68 216 -74 232 -3 8 -6 20 -7 25 -1 6 -3 12 -4 15 -4 8 -11 43 -13 63 -1
9 -5 17 -8 17 -3 0 -6 10 -6 23 -2 26 -12 76 -21 97 -3 8 -7 31 -9 50 -4 35
-11 75 -14 75 -1 0 -4 18 -6 40 -5 44 -12 80 -14 80 -1 0 -3 23 -6 50 -4 48
-11 90 -14 90 -1 0 -3 23 -4 50 -2 28 -7 97 -11 155 -11 137 -11 482 0 635 4
66 9 140 11 165 1 25 3 45 4 45 1 0 3 15 5 34 2 19 6 53 10 75 3 23 8 61 11
86 9 70 12 95 14 95 1 0 3 12 5 26 6 45 14 92 25 149 20 100 23 115 24 133 0
9 3 17 6 17 5 0 11 31 13 73 1 9 5 17 9 17 4 0 7 3 6 8 -1 4 4 33 11 64 7 32
11 59 9 61 -2 2 3 11 11 21 8 9 11 19 8 22 -3 4 1 23 8 43 8 20 16 45 18 56 2
11 7 27 10 35 8 21 31 103 32 115 0 6 3 15 7 20 3 6 13 37 23 70 9 33 21 65
26 71 5 6 6 14 2 17 -3 4 -1 12 4 19 10 13 52 132 54 153 0 6 5 16 11 23 6 6
7 12 2 12 -5 0 -4 4 2 8 16 11 34 71 23 77 -5 4 -9 3 -9 -2 0 -4 -31 -40 -68
-80 -104 -110 -142 -153 -136 -153 2 0 -9 -13 -26 -30 -16 -16 -30 -34 -30
-40 0 -6 -4 -8 -10 -5 -5 3 -10 0 -10 -7 0 -7 -16 -30 -35 -50 -19 -20 -35
-41 -35 -46 0 -6 -4 -12 -9 -14 -10 -4 -115 -139 -168 -215 -20 -29 -40 -53
-44 -53 -5 0 -9 -4 -9 -10 0 -8 -52 -87 -83 -125 -29 -36 -213 -328 -273 -435
-21 -36 -42 -68 -48 -72 -6 -4 -8 -8 -3 -8 4 0 -3 -17 -16 -37 -12 -21 -31
-56 -42 -78 -11 -22 -22 -42 -25 -45 -17 -17 -228 -465 -219 -465 1 0 -8 -19
-19 -41 -12 -23 -18 -44 -15 -48 4 -3 1 -6 -5 -6 -7 0 -11 -3 -10 -7 1 -5 -4
-21 -11 -38 -14 -36 -18 -47 -21 -60 -1 -5 -8 -26 -17 -45 -31 -74 -71 -199
-65 -204 3 -3 0 -6 -7 -6 -7 0 -10 -3 -8 -7 3 -5 0 -19 -6 -33 -5 -14 -11 -32
-12 -40 -4 -18 -7 -31 -39 -140 -14 -47 -26 -92 -26 -102 0 -9 -6 -19 -12 -21
-10 -4 -10 -6 -1 -6 9 -1 9 -10 -2 -40 -7 -22 -16 -54 -19 -73 -3 -18 -8 -44
-11 -58 -2 -14 -7 -36 -10 -50 -2 -14 -7 -41 -10 -60 -3 -19 -8 -48 -11 -65
-13 -73 -26 -181 -28 -232 0 -18 -3 -33 -6 -33 -21 0 -16 -677 6 -711 5 -8 3
-9 -6 -4 -9 5 -11 4 -6 -3 6 -11 12 -45 19 -127 2 -17 6 -35 8 -40 3 -6 5 -25
5 -42 -1 -18 1 -33 4 -33 3 0 5 -12 5 -27 -1 -16 2 -32 6 -38 4 -5 9 -28 13
-50 3 -22 8 -51 11 -65 3 -14 7 -34 9 -45 2 -11 12 -49 21 -85 9 -36 18 -69
20 -75 1 -5 5 -17 8 -25 5 -14 16 -61 18 -77 1 -5 10 -30 21 -58 11 -27 20
-52 20 -55 0 -3 4 -15 9 -28 5 -13 9 -29 9 -36 0 -7 3 -16 7 -20 5 -4 8 -11 9
-14 1 -9 13 -39 31 -81 8 -18 16 -39 18 -45 1 -6 10 -29 20 -51 11 -22 20 -43
21 -47 1 -5 3 -11 4 -15 1 -5 2 -11 1 -15 0 -5 3 -8 9 -8 5 0 10 -8 10 -17 -1
-14 -6 -12 -25 10 -14 15 -25 26 -25 24 0 -12 -206 205 -268 282 -20 25 -47
57 -60 71 -12 14 -22 30 -22 37 0 7 -4 13 -8 13 -9 0 -17 11 -115 160 -31 47
-62 92 -69 100 -7 8 -11 15 -10 15 8 0 -22 55 -30 55 -5 0 -7 4 -4 9 3 5 -4
20 -15 35 -11 14 -17 26 -12 26 4 0 3 4 -2 8 -13 8 -82 152 -91 187 -3 14 -9
25 -13 25 -4 0 -7 10 -8 22 -1 11 -8 25 -15 29 -7 5 -9 9 -4 9 5 0 4 6 -2 13
-6 6 -10 14 -11 17 0 3 -3 14 -6 25 -4 11 -11 31 -15 45 -4 14 -11 34 -16 45
-4 11 -9 29 -11 40 -2 11 -6 27 -10 35 -8 20 -8 18 -17 67 -4 24 -12 45 -17
49 -5 3 -7 8 -5 12 2 4 -3 36 -10 72 -14 64 -19 91 -30 180 -12 107 -16 174
-14 320 2 206 4 260 10 260 7 0 7 47 0 54 -3 3 -6 -3 -7 -12 -1 -9 -7 -30 -14
-47 -7 -16 -13 -34 -15 -40 -1 -5 -14 -46 -28 -90 -14 -44 -27 -92 -30 -105
-2 -14 -5 -26 -7 -27 -2 -4 -2 -4 -19 -78 -8 -33 -13 -63 -12 -67 1 -5 -2 -8
-7 -8 -4 0 -6 -11 -3 -25 2 -14 0 -25 -4 -25 -5 0 -10 -12 -10 -27 -1 -16 -4
-44 -8 -63 -4 -19 -9 -53 -11 -75 -3 -22 -7 -53 -11 -70 -3 -16 -7 -46 -9 -65
-2 -19 -4 -35 -5 -35 -1 0 -3 -20 -5 -45 -1 -25 -3 -45 -4 -45 -1 0 -3 -32 -4
-72 -2 -40 -6 -75 -9 -78 -3 -4 -3 -19 1 -33 5 -15 5 -36 1 -47 -4 -11 -4 -32
1 -47 4 -16 5 -28 1 -28 -7 0 -6 -96 1 -162 3 -24 0 -38 -7 -38 -8 0 -8 -2 0
-8 6 -4 12 -29 13 -57 4 -79 8 -112 15 -124 4 -6 2 -11 -4 -11 -6 0 -8 -5 -4
-12 4 -6 8 -21 9 -32 5 -41 15 -111 20 -136 3 -14 7 -38 9 -55 3 -16 10 -52
16 -80 6 -27 14 -63 16 -80 3 -16 8 -37 11 -45 8 -18 7 -16 18 -65 10 -46 12
-53 15 -60 1 -3 3 -8 4 -12 2 -5 8 -28 16 -53 7 -25 13 -48 12 -52 -1 -5 2 -8
6 -8 4 0 8 -8 9 -18 1 -9 16 -53 33 -97 17 -44 33 -87 35 -96 2 -9 13 -35 24
-57 12 -23 21 -48 21 -57 0 -8 3 -15 8 -15 4 0 13 -15 20 -32 25 -60 57 -123
65 -126 4 -2 5 -8 1 -13 -3 -5 0 -9 7 -9 7 0 9 -3 6 -7 -4 -3 -3 -11 2 -17 8
-9 32 -52 75 -131 6 -11 16 -23 21 -27 6 -4 6 -8 2 -8 -4 0 1 -10 13 -22 11
-12 20 -28 20 -35 0 -7 5 -13 10 -13 6 0 10 -5 10 -10 0 -12 89 -142 104 -152
7 -5 7 -8 1 -8 -6 0 -6 -3 1 -8 8 -6 80 -97 159 -201 11 -14 27 -32 37 -39 10
-7 18 -17 18 -22 0 -8 45 -57 172 -187 71 -72 72 -74 132 -131 22 -20 55 -52
74 -69 18 -18 36 -33 38 -33 2 0 17 -13 32 -30 16 -16 32 -30 37 -30 4 0 20
-14 36 -31 16 -17 29 -28 29 -25 0 5 29 -19 81 -66 10 -10 22 -18 26 -18 3 0
13 -7 22 -15 9 -9 45 -37 81 -63 36 -26 67 -50 68 -54 2 -5 10 -8 17 -8 7 0
15 -4 17 -8 2 -5 50 -39 108 -77 58 -38 107 -72 108 -77 2 -4 8 -6 13 -2 5 3
9 0 9 -5 0 -6 5 -11 11 -11 6 0 30 -14 54 -30 24 -17 48 -30 54 -30 6 0 11 -4
11 -10 0 -5 6 -10 14 -10 8 0 21 -6 28 -13 12 -11 58 -38 133 -76 16 -9 32
-18 35 -21 12 -14 415 -216 441 -222 7 -2 20 -9 27 -16 7 -6 22 -12 33 -12 10
0 19 -4 19 -8 0 -4 17 -14 38 -21 20 -8 64 -26 97 -41 57 -27 94 -42 105 -44
3 -1 10 -4 15 -7 12 -8 215 -90 230 -94 18 -4 70 -25 87 -35 10 -6 25 -10 33
-10 8 0 23 -4 33 -9 26 -14 128 -52 146 -55 8 -1 19 -5 22 -9 4 -4 18 -7 31
-7 12 0 23 -4 23 -10 0 -5 5 -10 11 -10 7 0 78 -21 158 -47 146 -47 153 -49
181 -56 8 -2 22 -7 30 -10 21 -8 89 -28 103 -31 7 -2 32 -9 57 -16 25 -8 50
-15 55 -16 6 0 18 -4 27 -8 9 -4 21 -5 27 -2 5 3 11 1 13 -5 3 -10 23 -14 86
-21 6 -1 12 -4 12 -8 0 -4 6 -7 13 -8 17 -2 81 -17 150 -36 62 -17 86 -14 66
10 -6 8 -9 14 -5 14 3 0 2 10 -3 23 -5 13 -12 41 -15 62 -4 21 -11 45 -18 52
-6 7 -8 16 -5 19 3 3 -1 31 -8 62 -8 31 -16 75 -19 97 -3 22 -8 56 -11 75 -3
19 -8 58 -10 85 -2 28 -5 50 -6 50 -2 0 -7 88 -10 168 -2 38 -7 67 -14 67 -6
0 -7 3 0 8 13 9 14 55 0 64 -7 5 -7 8 0 8 6 0 11 32 12 78 1 78 8 176 19 267
4 28 8 64 10 80 1 17 3 30 4 30 2 0 7 25 14 70 4 23 9 52 12 65 3 14 7 34 9
45 7 33 13 60 15 63 6 6 24 97 20 97 -2 0 2 10 9 23 7 13 14 32 17 43 10 45
13 56 25 84 6 17 13 35 14 41 2 6 19 52 39 101 20 50 36 96 36 102 0 6 5 11
10 11 6 0 10 4 10 9 0 5 5 22 11 38 6 15 10 30 9 32 -1 2 2 7 7 10 12 9 68
123 65 133 -1 4 2 8 8 8 5 0 18 19 29 43 11 23 31 59 45 80 14 21 26 42 26 47
0 4 3 10 8 12 4 1 29 37 57 78 27 41 57 80 65 87 8 7 11 13 5 13 -6 0 -6 3 1
8 6 4 42 45 79 92 37 47 74 89 82 93 7 4 13 12 13 16 0 12 180 191 192 191 6
0 9 3 6 6 -3 3 22 31 57 62 35 31 64 62 64 69 1 6 10 15 21 18 11 3 20 10 20
15 0 5 34 42 75 83 41 42 75 77 75 80 0 2 21 27 48 55 49 53 99 111 148 172
16 19 31 37 34 40 3 3 24 28 45 55 22 28 43 52 48 53 4 2 7 8 7 13 0 6 11 22
25 37 14 15 25 30 25 35 0 4 11 18 25 31 14 13 25 28 25 35 0 6 5 11 10 11 6
0 10 6 10 13 0 7 9 19 19 27 11 7 18 17 15 21 -2 5 5 13 16 19 11 6 20 17 20
24 0 7 9 24 21 37 11 13 28 38 36 54 9 17 22 34 29 38 8 4 14 14 14 21 0 7 9
21 20 31 11 10 17 22 14 26 -3 5 -1 9 4 9 4 0 19 19 32 43 13 23 30 48 37 55
7 8 11 18 8 23 -4 5 -2 9 2 9 10 0 122 189 122 204 -1 5 4 12 9 15 6 3 29 42
53 86 60 113 148 285 146 288 0 1 11 26 26 55 15 30 27 60 27 67 0 7 4 15 10
17 5 2 11 12 13 23 2 11 9 31 17 45 8 14 15 28 16 33 1 4 3 10 4 15 1 4 2 10
1 15 0 4 3 7 9 7 5 0 10 7 10 15 0 8 11 39 25 69 14 30 25 61 25 68 0 8 4 18
9 24 5 5 19 41 31 79 13 39 26 75 30 80 5 6 9 13 9 18 1 22 27 93 36 99 5 4 7
8 3 8 -4 0 -3 11 2 25 5 14 12 36 15 48 2 12 20 73 40 136 19 63 37 123 40
135 2 12 13 54 24 95 11 41 18 78 15 83 -3 4 -1 8 4 8 5 0 9 10 8 22 -1 13 1
25 5 28 4 3 9 23 13 45 3 22 8 51 11 65 3 14 8 41 11 60 3 19 7 46 10 60 7 34
13 78 19 125 2 22 7 54 9 70 28 183 40 659 22 905 -11 148 -14 185 -16 185 -1
0 -3 18 -5 40 -9 107 -26 228 -35 255 -1 3 -2 20 -2 38 0 17 -4 32 -8 32 -5 0
-7 7 -6 17 2 9 -3 42 -11 74 -7 33 -15 71 -17 86 -7 42 -16 86 -23 108 -8 23
-7 17 -18 75 -5 25 -9 47 -10 50 -1 3 -5 19 -10 35 -4 17 -10 35 -14 40 -3 6
-6 15 -6 20 -2 26 -20 93 -32 123 -7 17 -10 32 -7 32 4 0 1 7 -6 15 -7 8 -9
15 -6 15 4 0 2 10 -5 21 -6 12 -12 31 -14 43 -2 11 -11 44 -20 71 -23 63 -28
78 -30 88 -2 4 -3 8 -5 10 -1 1 -3 11 -5 22 -2 10 -8 28 -14 40 -5 11 -22 54
-36 95 -14 41 -31 80 -37 87 -6 7 -8 13 -5 13 6 0 -28 89 -65 168 -11 24 -21
48 -22 55 -1 7 -13 35 -25 62 -13 28 -30 66 -39 85 -52 119 -195 406 -205 412
-7 4 -8 8 -4 8 5 0 -5 24 -21 53 -16 28 -44 79 -62 112 -63 115 -123 220 -129
225 -3 3 -15 23 -26 44 -35 68 -40 76 -47 76 -5 0 -8 6 -8 13 0 7 -8 22 -18
33 -10 10 -18 23 -19 28 0 4 -5 15 -12 25 -6 9 -46 70 -88 136 -43 66 -81 122
-85 123 -5 2 -8 8 -8 13 0 8 -51 87 -75 116 -5 6 -26 35 -45 63 -61 89 -204
285 -235 323 -45 54 -75 97 -75 107 0 6 -4 8 -10 5 -5 -3 -10 -1 -10 6 0 6
-15 28 -32 48 -18 20 -44 52 -58 70 -14 19 -32 42 -42 53 -9 10 -31 38 -50 60
-61 76 -100 123 -107 128 -3 3 -26 30 -51 60 -24 30 -56 67 -70 81 -14 14 -47
52 -75 84 -101 117 -174 194 -382 403 -190 190 -223 221 -223 208z"/>
<path d="M6338 12308 c-16 -16 -28 -32 -28 -35 0 -3 -13 -19 -30 -35 -16 -15
-30 -31 -30 -34 0 -4 -17 -25 -37 -48 -21 -23 -53 -60 -71 -83 -19 -23 -41
-51 -50 -62 -10 -11 -26 -32 -37 -47 -11 -15 -33 -42 -50 -58 -16 -17 -28 -33
-26 -34 2 -2 -5 -14 -15 -26 -11 -12 -32 -39 -48 -61 -17 -22 -35 -43 -40 -47
-6 -4 -7 -8 -2 -8 6 0 3 -6 -6 -12 -21 -18 -158 -206 -158 -218 0 -6 -3 -10
-7 -10 -5 0 -25 -27 -47 -60 -21 -33 -42 -60 -47 -60 -5 0 -9 -6 -9 -14 0 -7
-7 -19 -15 -26 -8 -7 -13 -15 -10 -19 2 -4 -5 -13 -15 -21 -10 -8 -17 -17 -14
-22 3 -4 0 -8 -5 -8 -6 0 -11 -5 -11 -11 0 -6 -13 -28 -28 -48 -16 -20 -32
-44 -35 -53 -4 -10 -11 -18 -17 -18 -5 0 -10 -6 -10 -13 0 -7 -20 -42 -45 -79
-25 -37 -45 -71 -45 -76 0 -5 -9 -17 -20 -27 -11 -10 -17 -22 -14 -26 3 -5 2
-9 -3 -9 -4 0 -13 -10 -19 -23 -6 -12 -42 -74 -79 -137 -38 -63 -75 -128 -83
-145 -8 -16 -22 -38 -30 -47 -8 -10 -12 -18 -7 -18 4 0 3 -6 -3 -12 -24 -31
-172 -319 -172 -337 0 -6 -4 -11 -9 -11 -5 0 -12 -10 -16 -22 -4 -13 -8 -25
-9 -28 -1 -3 -18 -39 -38 -80 -53 -113 -98 -217 -98 -229 0 -6 -4 -11 -8 -11
-5 0 -9 -6 -9 -12 -1 -7 -24 -68 -51 -135 -28 -67 -53 -136 -57 -153 -4 -16
-10 -30 -14 -30 -4 0 -7 -10 -8 -22 -1 -11 -6 -24 -10 -27 -4 -3 -8 -10 -8
-16 0 -5 -15 -55 -33 -110 -36 -107 -39 -117 -40 -125 0 -3 -6 -18 -12 -35 -7
-16 -13 -37 -16 -45 -17 -69 -28 -106 -33 -110 -3 -3 -7 -14 -9 -25 -6 -42
-10 -60 -11 -60 -2 0 -4 -7 -6 -15 -2 -8 -6 -25 -9 -37 -14 -55 -17 -69 -22
-93 -3 -14 -9 -41 -14 -60 -5 -19 -12 -53 -16 -74 -3 -22 -10 -49 -14 -62 -5
-12 -6 -24 -3 -27 3 -3 1 -12 -3 -19 -5 -7 -9 -17 -9 -23 -1 -12 -18 -127 -21
-137 -1 -5 -3 -11 -4 -15 -1 -5 -2 -11 -1 -15 0 -4 -4 -33 -10 -64 -6 -32 -12
-76 -14 -98 -2 -23 -7 -72 -11 -111 -4 -38 -8 -87 -8 -107 -1 -21 -3 -38 -6
-38 -10 0 -14 -527 -6 -660 12 -186 43 -449 62 -530 3 -14 7 -37 8 -52 0 -16
3 -28 6 -28 3 0 6 -8 7 -17 1 -24 14 -97 19 -104 3 -5 13 -52 19 -89 1 -8 5
-22 8 -30 5 -13 44 -153 51 -185 2 -5 8 -30 15 -55 7 -25 13 -47 13 -50 0 -3
4 -11 10 -17 6 -7 7 -13 4 -13 -4 0 -2 -8 3 -18 6 -11 12 -30 15 -43 3 -13 17
-58 32 -99 14 -41 26 -81 27 -87 0 -7 4 -13 9 -13 4 0 8 -10 8 -23 0 -13 3
-27 8 -31 4 -4 7 -13 7 -19 0 -26 24 -15 42 20 34 65 65 117 84 145 11 14 19
30 19 35 0 6 9 18 20 28 11 10 20 22 20 26 0 8 72 118 98 149 7 8 13 19 15 25
1 5 12 20 25 34 12 13 22 28 22 33 0 5 6 16 13 23 35 40 97 132 97 146 0 5 4
9 9 9 5 0 13 9 16 20 3 11 12 26 18 32 24 25 125 196 120 202 -4 3 -1 6 5 6 6
0 28 30 48 68 21 37 46 79 56 95 11 15 16 27 11 27 -4 0 -3 4 3 8 10 6 90 149
139 247 11 22 23 42 28 43 4 2 7 8 7 12 0 5 27 65 61 134 33 69 60 128 59 132
-1 4 3 10 10 14 6 4 12 13 14 21 1 8 8 24 14 37 7 12 9 22 5 22 -4 0 -3 4 3 8
5 4 21 32 33 62 13 30 31 71 39 90 9 19 16 38 16 42 1 3 4 10 9 14 4 4 7 16 7
26 0 10 5 18 10 18 6 0 10 8 10 18 0 9 6 28 13 42 7 14 24 54 37 90 13 36 27
70 32 76 5 7 8 16 6 20 -1 5 6 26 15 48 9 21 17 44 17 51 0 6 3 15 8 19 4 4 8
12 8 17 1 5 3 11 4 14 1 3 3 8 5 13 1 4 5 16 9 27 16 40 19 50 23 65 6 24 9
33 22 64 6 16 9 31 6 34 -3 3 1 12 9 21 8 9 15 19 15 24 -1 18 14 73 21 82 5
6 10 24 13 42 3 17 8 36 11 41 6 11 37 119 40 142 1 9 5 20 9 26 3 6 9 26 12
44 3 18 8 37 11 42 3 5 8 21 11 36 8 41 11 57 13 57 1 0 3 9 5 19 2 11 7 31
11 45 4 14 8 33 8 41 1 8 4 20 8 25 5 9 12 38 22 95 1 8 6 26 10 39 5 13 9 38
10 55 2 18 6 38 10 44 4 7 5 16 1 21 -3 5 -1 12 5 16 6 4 8 10 5 15 -3 5 -1
11 5 15 6 4 8 10 6 14 -3 4 1 39 9 77 8 38 16 83 19 99 3 17 7 41 10 55 3 14
7 41 10 60 2 19 7 46 10 60 2 14 7 48 11 75 3 28 8 59 10 70 5 22 14 95 29
223 15 126 18 162 20 214 0 32 3 58 6 58 3 0 6 15 7 33 0 17 3 68 6 112 16
212 21 408 20 715 -1 368 -5 479 -16 497 -4 6 -3 14 3 18 6 4 8 10 5 15 -3 5
-8 51 -11 102 -10 158 -12 183 -14 183 -1 0 -3 20 -4 45 -7 95 -23 232 -29
236 -1 1 -14 -12 -29 -28z"/>
<path d="M9210 8772 c0 -12 5 -22 12 -22 6 0 9 -3 5 -6 -3 -3 3 -29 15 -58 11
-28 21 -55 23 -61 1 -5 5 -17 8 -25 15 -35 99 -297 104 -319 2 -13 9 -33 14
-43 6 -11 8 -22 5 -25 -3 -4 -1 -12 6 -20 6 -8 12 -24 13 -36 1 -12 5 -29 8
-37 4 -8 8 -24 10 -35 2 -11 6 -27 10 -35 3 -8 10 -35 15 -60 6 -25 14 -58 18
-75 4 -16 7 -38 7 -47 0 -10 4 -18 9 -18 6 0 8 -6 5 -14 -3 -8 -3 -17 1 -20 3
-4 7 -12 8 -19 1 -7 5 -32 9 -57 4 -24 8 -47 11 -51 2 -3 5 -21 8 -40 2 -19 7
-46 11 -61 4 -15 8 -42 10 -60 1 -18 5 -40 8 -48 8 -21 30 -195 31 -247 1 -18
3 -33 6 -33 3 0 6 -17 7 -37 1 -21 5 -76 9 -123 5 -47 8 -213 8 -370 1 -251
-4 -362 -19 -490 -2 -19 -6 -55 -8 -80 -6 -52 -17 -136 -23 -165 -10 -50 -16
-82 -18 -100 -2 -11 -9 -47 -16 -80 -8 -33 -13 -64 -12 -68 1 -4 -2 -16 -7
-25 -5 -9 -11 -30 -14 -47 -3 -16 -10 -45 -16 -62 -5 -18 -7 -33 -4 -33 3 0 0
-7 -7 -15 -7 -8 -10 -15 -6 -15 3 0 0 -16 -8 -35 -8 -19 -12 -35 -9 -35 3 0 0
-7 -7 -15 -7 -8 -10 -15 -7 -15 3 0 -1 -16 -9 -35 -8 -19 -15 -38 -15 -42 -1
-5 -5 -19 -10 -32 -5 -13 -11 -32 -13 -43 -1 -11 -7 -23 -12 -26 -5 -4 -10
-18 -12 -32 -1 -13 -7 -27 -13 -31 -6 -3 -10 -9 -9 -13 1 -4 -6 -26 -16 -49
-10 -23 -18 -44 -19 -47 0 -3 -7 -16 -15 -30 -7 -14 -13 -27 -13 -30 1 -10
-62 -135 -69 -138 -5 -2 -8 -8 -8 -13 0 -5 -18 -39 -40 -75 -22 -36 -40 -70
-40 -75 0 -5 -4 -9 -9 -9 -5 0 -15 26 -21 58 -7 31 -16 62 -21 68 -5 6 -7 13
-4 16 3 3 -3 31 -14 64 -10 32 -27 88 -36 124 -10 36 -21 70 -25 75 -4 6 -11
25 -15 43 -3 17 -11 32 -15 32 -5 0 -7 6 -4 14 3 8 1 17 -5 21 -6 3 -11 12
-11 19 0 8 -8 31 -17 52 -9 22 -17 41 -18 44 0 3 -10 25 -21 50 -12 25 -25 54
-28 65 l-7 20 -12 -20 c-12 -21 -14 -26 -16 -49 0 -8 -7 -21 -13 -28 -7 -7
-14 -20 -16 -28 -5 -22 -170 -357 -197 -399 -12 -20 -22 -38 -23 -41 -1 -15
-37 -80 -44 -80 -4 0 -8 -4 -8 -9 0 -14 -129 -234 -141 -242 -6 -3 -9 -8 -8
-10 5 -6 -35 -69 -43 -69 -4 0 -8 -5 -8 -12 0 -13 -79 -131 -92 -136 -4 -2 -8
-10 -8 -17 0 -8 -6 -20 -13 -27 -7 -7 -23 -30 -36 -50 -12 -21 -27 -38 -32
-38 -6 0 -7 -5 -4 -10 3 -6 -1 -13 -9 -16 -9 -3 -16 -12 -16 -20 0 -7 -9 -18
-20 -24 -11 -6 -19 -14 -17 -18 2 -8 -42 -69 -75 -104 -10 -10 -16 -18 -13
-18 3 0 -3 -9 -13 -21 -40 -49 -48 -59 -77 -94 -16 -21 -40 -48 -52 -60 -13
-12 -23 -26 -23 -30 0 -4 -16 -23 -35 -41 -18 -19 -31 -34 -28 -34 3 0 -8 -14
-26 -30 -17 -17 -31 -32 -31 -34 0 -8 -136 -151 -350 -366 -129 -130 -251
-255 -270 -279 -19 -24 -47 -57 -62 -75 -15 -17 -28 -34 -28 -38 0 -4 -6 -13
-12 -20 -7 -7 -30 -36 -50 -63 -21 -28 -42 -55 -47 -61 -5 -7 -8 -14 -5 -16 2
-3 -5 -13 -16 -23 -11 -10 -20 -23 -20 -30 0 -7 -9 -20 -20 -30 -11 -10 -17
-22 -14 -26 3 -5 1 -9 -5 -9 -25 0 -22 -50 6 -102 40 -71 111 -233 151 -338
11 -30 24 -64 28 -75 4 -11 8 -23 9 -27 2 -5 3 -9 5 -10 1 -2 3 -11 5 -21 2
-10 7 -26 11 -35 4 -9 8 -24 10 -32 1 -8 14 -57 28 -108 13 -51 27 -107 29
-125 3 -17 8 -39 11 -48 4 -8 8 -33 10 -55 2 -21 6 -46 9 -54 4 -8 8 -37 11
-65 3 -27 7 -63 11 -78 4 -22 3 -27 -7 -21 -11 6 -11 5 0 -8 6 -8 12 -26 12
-39 0 -70 8 -208 13 -216 3 -5 2 -15 -3 -23 -4 -7 -4 -23 0 -36 5 -12 6 -24 3
-28 -3 -3 -7 -56 -9 -118 -3 -97 -8 -153 -14 -153 -1 0 -3 -20 -4 -45 -2 -25
-7 -70 -11 -100 -4 -30 -8 -61 -8 -67 0 -7 -4 -13 -8 -13 -5 0 -6 -7 -3 -15 4
-8 3 -23 -2 -32 -4 -10 -8 -27 -9 -38 -2 -11 -14 -67 -29 -124 -14 -58 -24
-107 -22 -109 3 -2 29 3 59 12 29 9 65 18 78 20 13 3 24 5 24 6 0 1 13 4 30 6
16 3 32 8 35 12 3 4 12 7 20 8 28 2 215 56 226 65 6 5 13 6 16 4 3 -3 18 0 34
6 16 6 40 13 54 15 14 2 26 8 28 14 2 5 8 8 12 5 5 -3 25 1 45 9 19 8 36 15
38 14 9 -5 107 28 107 36 0 5 3 7 6 3 4 -3 22 0 40 8 19 8 35 14 37 13 6 -3
231 75 282 97 16 8 33 11 37 9 4 -3 8 0 8 7 0 7 3 10 6 6 4 -3 19 0 35 9 16 8
29 12 29 8 0 -4 6 -2 13 3 6 6 29 16 50 23 22 7 51 18 65 26 15 8 35 14 45 14
9 0 17 5 17 11 0 5 5 7 10 4 6 -3 10 -1 10 4 0 6 3 10 8 9 14 -4 142 46 142
56 0 5 3 6 6 3 4 -3 16 -1 28 5 11 7 24 11 29 10 4 -1 7 2 7 8 0 6 3 9 8 8 4
-1 25 7 47 17 22 10 42 19 45 20 7 2 66 28 145 65 39 18 73 38 77 44 4 6 8 7
8 3 0 -9 218 101 226 114 3 5 9 7 14 4 5 -3 14 0 22 7 7 7 40 27 73 43 33 17
62 33 65 36 3 3 30 19 60 36 79 44 171 101 196 121 11 9 26 18 32 19 7 2 34
19 61 38 26 19 53 35 60 35 6 0 11 5 11 10 0 6 8 14 18 17 14 5 147 98 187
130 6 5 49 38 97 75 48 37 100 78 115 92 15 13 39 34 53 46 138 118 400 372
400 389 0 5 9 13 20 16 11 4 18 10 16 14 -3 4 3 14 12 23 30 28 110 123 110
131 1 5 9 16 19 25 28 25 133 168 133 181 0 6 4 11 10 11 5 0 16 13 25 29 8
16 20 35 27 43 7 8 18 23 24 33 25 46 40 70 47 79 16 20 55 90 104 186 26 52
51 97 55 100 3 3 10 18 13 33 4 15 10 27 14 27 4 0 8 6 8 13 1 10 57 146 84
202 6 12 11 27 13 35 2 8 8 28 14 43 7 16 12 35 12 43 0 8 5 14 12 14 6 0 9 2
6 5 -3 3 6 43 19 88 33 108 42 147 36 147 -3 0 -1 6 5 13 5 6 13 26 15 42 3
17 8 41 11 55 14 65 27 128 32 160 3 19 7 49 10 65 14 95 27 224 28 292 1 29
3 53 6 53 9 0 5 64 -5 79 -5 9 -4 12 1 8 6 -3 9 47 8 131 -1 75 -3 137 -4 137
0 0 -3 41 -6 90 -6 100 -11 160 -13 160 -1 0 -4 21 -6 46 -2 26 -7 60 -10 75
-2 16 -8 49 -11 74 -7 49 -9 62 -18 100 -3 14 -8 39 -11 55 -6 31 -12 57 -15
65 -1 3 -2 9 -1 14 1 5 -3 21 -8 35 -6 14 -13 37 -15 51 -3 14 -10 41 -16 60
-6 19 -13 43 -15 53 -5 20 -24 82 -35 112 -5 11 -14 36 -21 55 -7 19 -17 40
-22 45 -7 7 -8 6 -4 -1 8 -14 17 -106 23 -234 6 -118 6 -100 0 -200 -2 -47 -6
-106 -7 -132 -1 -27 -5 -48 -9 -48 -3 0 -5 -13 -4 -30 1 -16 -2 -47 -7 -67 -5
-21 -11 -54 -14 -73 -4 -33 -8 -53 -20 -100 -3 -11 -7 -29 -10 -40 -8 -32 -16
-64 -20 -80 -2 -8 -4 -16 -5 -17 -2 -2 -4 -7 -5 -13 -1 -5 -3 -11 -4 -12 -2
-2 -4 -13 -6 -24 -3 -12 -9 -34 -15 -50 -6 -16 -11 -30 -11 -32 1 -1 -6 -16
-14 -32 -8 -16 -16 -33 -16 -37 -1 -5 -6 -19 -12 -33 -6 -14 -11 -27 -12 -30
-9 -39 -29 -80 -37 -80 -6 0 -8 -3 -5 -6 6 -6 -98 -222 -113 -234 -3 -3 -17
-26 -30 -52 -14 -27 -27 -48 -30 -48 -3 0 -14 -17 -25 -37 -11 -21 -22 -40
-25 -43 -4 -3 -26 -34 -51 -70 -24 -36 -46 -67 -49 -70 -3 -3 -17 -21 -32 -40
-14 -19 -35 -45 -47 -57 -12 -12 -21 -25 -21 -28 0 -3 -16 -21 -35 -40 -19
-19 -32 -35 -30 -35 3 0 -44 -50 -104 -110 -60 -61 -117 -110 -127 -110 -15 0
-16 2 -2 18 9 9 13 23 11 30 -3 6 -1 12 4 12 9 0 19 23 82 185 30 78 102 300
117 360 4 17 8 35 10 40 1 6 5 21 8 35 3 14 10 45 17 70 6 25 13 59 16 75 6
41 11 66 18 95 8 38 19 122 20 153 0 15 2 27 5 27 3 0 6 17 7 38 1 20 5 64 8
97 3 33 7 94 9 136 1 41 5 80 9 86 4 5 4 13 1 16 -3 3 -7 88 -9 189 -4 168
-10 293 -14 293 -2 0 -4 18 -6 41 -11 123 -26 216 -37 238 -8 14 -7 17 3 11 7
-5 10 -4 6 2 -6 9 -15 45 -22 93 -3 14 -9 45 -15 70 -6 25 -11 53 -11 63 0 9
-5 17 -10 17 -6 0 -7 5 -3 11 3 6 2 28 -5 48 -9 30 -67 243 -75 276 -2 6 -6
17 -9 25 -3 8 -23 67 -43 130 -21 63 -42 118 -47 121 -5 3 -8 8 -6 10 2 5 -9
46 -21 74 -17 40 -23 60 -22 68 1 4 -2 7 -8 7 -6 0 -9 3 -8 8 1 8 -7 31 -30
82 -8 19 -21 49 -28 65 -7 17 -40 88 -74 159 -33 70 -60 130 -60 133 0 3 -9
18 -21 34 -11 16 -17 29 -13 29 3 0 2 6 -4 13 -5 6 -21 32 -34 57 -14 25 -44
81 -68 125 -24 44 -47 82 -52 83 -4 2 -8 8 -8 13 0 5 -22 46 -50 90 -27 44
-50 85 -50 90 0 5 -4 9 -9 9 -5 0 -13 9 -16 21 -4 12 -16 32 -27 44 -11 13
-19 26 -18 30 1 4 -2 11 -7 14 -5 3 -26 34 -48 68 -22 35 -43 63 -47 63 -5 0
-8 6 -8 13 0 8 -9 22 -20 32 -11 10 -20 24 -20 32 0 7 -3 13 -7 13 -5 0 -24
25 -43 55 -19 30 -38 55 -42 55 -5 0 -8 5 -8 11 0 7 -8 19 -18 28 -10 9 -33
37 -50 63 -18 25 -39 53 -47 62 -8 8 -30 35 -49 59 -48 63 -68 87 -93 114 -13
13 -23 26 -23 29 0 3 -10 15 -22 28 -13 13 -48 51 -78 86 -127 143 -140 156
-140 132z"/>
</g>
</svg>
